<svg width="130" height="222" viewBox="0 0 130 222" fill="none" xmlns="http://www.w3.org/2000/svg">
<path d="M91 215.501C91 219.111 70.6336 222 45.5 222C20.3664 222 0 219.111 0 215.501C0 211.89 20.3664 209.002 45.5 209.002C70.6336 208.921 91 211.89 91 215.501Z" fill="#DDDDDD"/>
<path d="M38.428 213.989C38.6182 208.901 38.9985 203.687 39.6958 198.536C40.393 193.321 41.2805 188.107 42.4848 182.892C43.6258 177.742 45.0837 172.527 46.7318 167.376C48.3798 162.162 50.3448 157.011 52.5 151.86C54.6551 146.709 57.0638 141.622 59.6627 136.598C59.9797 135.962 60.2966 135.326 60.6769 134.754C60.9305 134.309 60.6135 133.8 60.1698 133.736C59.6627 133.609 59.2824 134.499 59.0922 134.945C56.3666 140.032 53.7043 144.547 51.4858 149.761C49.2672 154.912 47.3022 160.063 45.5908 165.214C43.816 170.492 42.2947 175.707 41.0903 180.985C39.8226 186.199 38.8717 191.414 38.1111 196.628C37.3505 201.843 36.9068 206.994 36.6532 212.144C36.6532 212.78 36.5898 213.416 36.5898 214.052C36.5898 214.497 36.8434 214.879 37.4139 214.879C37.7308 214.815 38.3646 214.434 38.428 213.989Z" fill="#B4CFBF"/>
<path d="M58.5218 136.789C59.219 133.673 59.8529 130.748 61.5644 128.013C62.2616 126.932 63.7829 125.787 64.9239 125.215C65.431 124.961 66.255 124.834 66.5086 125.406C66.572 125.597 66.572 125.787 66.5086 125.978C66.1916 127.759 65.431 129.794 64.4168 131.256C62.7053 133.546 60.4868 134.69 58.5218 136.789Z" fill="#B4CFBF"/>
<path d="M56.6201 140.35C54.6551 137.743 52.6901 135.326 51.7393 132.21C51.359 130.938 51.4858 129.031 51.7393 127.695C51.8661 127.123 52.3732 126.423 52.9437 126.614C53.1339 126.678 53.2606 126.868 53.3874 126.996C54.5284 128.395 55.6693 130.366 56.113 132.083C56.8737 134.945 56.2398 137.425 56.6201 140.35Z" fill="#B4CFBF"/>
<path d="M56.3032 140.604C59.1556 138.951 61.6911 137.297 64.9239 136.662C66.1916 136.407 68.0932 136.725 69.361 137.17C69.9315 137.361 70.5653 137.933 70.3118 138.506C70.2484 138.696 70.0582 138.824 69.8681 138.951C68.3468 139.968 66.3184 140.859 64.4802 141.113C61.6277 141.494 59.219 140.604 56.3032 140.604Z" fill="#B4CFBF"/>
<path d="M51.8661 150.206C49.711 147.345 47.6192 144.801 46.605 141.367C46.1613 140.032 46.2881 137.933 46.605 136.534C46.7318 135.898 47.2389 135.135 47.8728 135.326C48.0629 135.39 48.2531 135.58 48.3798 135.708C49.6476 137.234 50.8519 139.332 51.359 141.24C52.1197 144.356 51.4858 147.091 51.8661 150.206Z" fill="#B4CFBF"/>
<path d="M51.4858 150.143C54.5284 148.299 57.3174 146.518 60.8037 145.882C62.1983 145.628 64.29 145.946 65.6212 146.391C66.2551 146.582 66.9523 147.218 66.6354 147.79C66.572 147.981 66.3818 148.108 66.1917 148.235C64.5436 149.316 62.325 150.27 60.36 150.588C57.254 151.033 54.5918 150.079 51.4858 150.143Z" fill="#B4CFBF"/>
<path d="M46.9219 162.543C44.1963 158.919 41.534 155.612 40.2029 151.224C39.6958 149.507 39.8226 146.773 40.2029 144.992C40.3931 144.165 41.0269 143.211 41.851 143.466C42.1045 143.529 42.2947 143.784 42.4848 143.975C44.0695 145.946 45.6542 148.617 46.2881 151.033C47.2389 155.103 46.4148 158.537 46.9219 162.543Z" fill="#B4CFBF"/>
<path d="M46.8586 162.988C50.7886 160.635 54.3382 158.41 58.7753 157.519C60.5502 157.202 63.2124 157.647 64.9239 158.219C65.7479 158.473 66.6353 159.236 66.255 160C66.1282 160.254 65.8747 160.445 65.6845 160.572C63.5927 161.971 60.7403 163.179 58.2682 163.561C54.2115 164.197 50.8519 162.988 46.8586 162.988Z" fill="#B4CFBF"/>
<path d="M43.3089 174.435C40.2663 171.064 37.3505 168.012 35.639 163.751C34.9418 162.034 34.8784 159.364 35.1319 157.583C35.2587 156.756 35.8292 155.739 36.6532 155.93C36.9068 155.993 37.1603 156.184 37.3505 156.375C39.1253 158.155 40.9001 160.699 41.7242 163.116C42.9919 166.931 42.4848 170.429 43.3089 174.435Z" fill="#B4CFBF"/>
<path d="M43.3089 174.88C46.9853 172.209 50.3449 169.665 54.782 168.457C56.5568 167.948 59.219 168.203 60.9939 168.648C61.8179 168.839 62.7687 169.538 62.4518 170.365C62.325 170.619 62.1349 170.81 61.8813 171.001C59.9163 172.591 57.1907 174.053 54.7186 174.562C50.7252 175.389 47.3023 174.435 43.3089 174.88Z" fill="#B4CFBF"/>
<path d="M40.4564 186.517C37.7942 183.91 35.3221 181.557 33.7374 178.25C33.1035 176.915 32.9134 174.753 32.9767 173.29C33.0401 172.591 33.4205 171.764 34.1177 171.891C34.3713 171.955 34.5614 172.082 34.6882 172.209C36.2095 173.608 37.7308 175.579 38.5548 177.487C39.8859 180.476 39.6324 183.338 40.4564 186.517Z" fill="#B4CFBF"/>
<path d="M40.4564 186.899C43.3088 184.546 45.9077 182.32 49.4574 181.112C50.8519 180.667 53.0071 180.667 54.465 180.921C55.1622 181.048 55.9229 181.557 55.7327 182.193C55.6693 182.384 55.4792 182.574 55.3524 182.765C53.8311 184.101 51.676 185.436 49.7109 186.008C46.5416 186.962 43.6892 186.39 40.4564 186.899Z" fill="#B4CFBF"/>
<path d="M38.745 197.01C36.3997 195.038 34.1177 193.258 32.5964 190.523C31.9626 189.442 31.709 187.662 31.6456 186.39C31.6456 185.818 31.9626 185.055 32.533 185.118C32.7232 185.118 32.9134 185.245 33.0401 185.373C34.3713 186.39 35.8292 187.98 36.5898 189.506C37.8576 191.986 37.8576 194.402 38.745 197.01Z" fill="#B4CFBF"/>
<path d="M38.745 197.328C40.9635 195.229 42.9919 193.194 45.8443 191.922C46.9853 191.414 48.7602 191.35 50.0279 191.477C50.5984 191.541 51.2956 191.922 51.1689 192.495C51.1055 192.685 50.9787 192.813 50.8519 193.003C49.6476 194.212 47.9995 195.484 46.3514 196.056C43.8159 197.01 41.4072 196.692 38.745 197.328Z" fill="#B4CFBF"/>
<path d="M37.604 205.785C35.5122 204.323 33.5472 203.051 32.0893 200.952C31.5189 200.126 31.1385 198.663 31.0118 197.646C30.9484 197.2 31.1385 196.565 31.6456 196.565C31.7724 196.565 31.9626 196.628 32.0893 196.755C33.2937 197.518 34.5614 198.663 35.3221 199.871C36.463 201.715 36.5898 203.687 37.604 205.785Z" fill="#B4CFBF"/>
<path d="M37.604 205.976C39.2521 204.068 40.7734 202.224 42.9919 201.016C43.8793 200.507 45.3372 200.316 46.3514 200.316C46.7951 200.316 47.429 200.571 47.3656 201.016C47.3656 201.143 47.2388 201.334 47.1755 201.461C46.288 202.542 45.0203 203.687 43.7526 204.323C41.7242 205.34 39.7592 205.277 37.604 205.976Z" fill="#B4CFBF"/>
<path d="M69.4878 172.4C69.4878 172.336 69.4878 172.209 69.4878 172.145C73.1008 168.839 77.1576 165.914 81.4046 163.497C89.328 158.982 98.012 155.993 106.886 153.831C114.429 152.051 122.163 150.842 129.896 150.334C125.459 154.531 123.113 157.074 119.69 160.508C117.916 162.289 116.331 164.197 114.936 166.231C112.274 165.532 109.675 164.642 107.076 163.624C109.232 165.214 111.323 166.804 113.478 168.394C109.802 173.99 106.823 180.094 103.083 185.69C102.386 185.372 101.688 185.055 100.991 184.673C99.153 183.719 97.3781 182.638 95.3497 182.32C96.5541 185.118 97.8852 187.916 99.4065 190.587C89.011 202.987 71.2626 211.699 55.3524 212.399C52.4366 206.676 53.2606 199.681 55.3524 193.576C56.7469 189.379 58.7753 185.436 61.2474 181.748C62.5152 179.904 63.8463 178.123 65.3676 176.47C66.5086 178.377 67.7129 180.285 68.9173 182.129C69.4878 178.886 69.6779 175.643 69.4878 172.4Z" fill="#55CA84"/>
<path d="M106.886 153.831C113.795 152.178 120.831 151.097 127.931 150.524C124.444 151.415 121.275 153.132 118.233 154.976C114.683 157.074 111.07 159.046 107.457 161.017C95.0962 167.694 84.3838 177.36 74.432 187.407C66.9523 194.975 60.2966 203.687 56.7469 212.272C56.3032 212.272 55.8595 212.335 55.4158 212.335C52.5 206.612 53.324 199.617 55.4158 193.512C56.8103 189.315 58.8387 185.373 61.3108 181.684C62.5786 179.84 63.9097 178.06 65.431 176.406C66.5719 178.314 67.7763 180.222 68.9807 182.066C69.4878 178.886 69.6779 175.643 69.5511 172.463C69.5511 172.4 69.5511 172.273 69.5511 172.209C73.1642 168.902 77.221 165.977 81.468 163.561C89.328 158.982 98.012 155.93 106.886 153.831Z" fill="#54A273"/>
<path d="M57.6978 208.393C60.2966 204.513 63.0857 200.698 66.0649 197.01C69.044 193.321 72.0866 189.76 75.3828 186.39C78.6155 182.956 82.0384 179.713 85.5247 176.597C89.011 173.481 92.6875 170.492 96.4907 167.694C100.294 164.896 104.161 162.225 108.154 159.745C108.661 159.427 109.168 159.109 109.675 158.855C109.992 158.664 110.309 159.173 109.992 159.364C105.999 161.78 102.069 164.387 98.2656 167.122C94.4623 169.856 90.7859 172.781 87.2996 175.834C83.7499 178.886 80.327 182.129 77.0942 185.5C73.8615 188.87 70.6921 192.304 67.7763 195.929C64.7971 199.553 62.0081 203.305 59.3458 207.184C59.0289 207.693 58.7119 208.138 58.3316 208.647C58.0147 208.965 57.5076 208.711 57.6978 208.393Z" fill="white"/>
<path d="M64.9239 198.727C68.7271 197.582 72.7205 196.946 76.7139 196.755C77.8549 196.692 78.9324 196.692 80.0734 196.755C80.4537 196.755 80.4537 197.328 80.0734 197.328C76.1434 197.201 72.2134 197.582 68.3468 198.472C67.2692 198.727 66.1916 198.981 65.114 199.299C64.7337 199.363 64.5436 198.854 64.9239 198.727Z" fill="white"/>
<path d="M86.7291 175.643C90.4055 174.117 94.2088 172.972 98.1388 172.4C99.2797 172.209 100.357 172.082 101.498 171.955C101.879 171.891 101.879 172.527 101.498 172.527C97.5683 172.845 93.7017 173.672 89.9618 175.007C88.8842 175.389 87.87 175.77 86.8559 176.215C86.7291 176.279 86.5389 176.152 86.4755 176.025C86.4755 175.834 86.5389 175.707 86.7291 175.643Z" fill="white"/>
<path d="M73.7981 188.171C74.115 185.754 74.4954 183.338 75.0024 180.985C75.5095 178.568 76.1434 176.215 76.8407 173.926C77.221 172.591 77.6647 171.319 78.1084 170.047C78.1718 169.92 78.2986 169.793 78.4254 169.856C78.5521 169.92 78.6789 170.047 78.6155 170.174C77.7915 172.463 77.0942 174.753 76.4603 177.106C75.8265 179.459 75.3194 181.875 74.8757 184.228C74.6221 185.563 74.432 186.962 74.2418 188.298C74.2418 188.425 74.0516 188.552 73.9249 188.488C73.8615 188.488 73.7981 188.298 73.7981 188.171Z" fill="white"/>
<path d="M68.3468 213.48C70.7555 211.509 73.2276 209.601 75.8265 207.82C78.4253 206.04 81.2144 204.323 84.0034 202.733C86.7925 201.143 89.7083 199.744 92.6875 198.409C95.73 197.073 98.836 195.865 102.069 194.72C105.238 193.639 108.534 192.622 111.894 191.795C112.337 191.668 112.718 191.604 113.162 191.477C113.478 191.414 113.542 191.096 113.415 190.841C113.225 190.587 112.718 190.778 112.401 190.841C109.041 191.668 105.872 192.304 102.639 193.385C99.4065 194.466 96.3005 195.674 93.2579 196.946C90.152 198.282 87.1728 199.744 84.257 201.27C81.4046 202.797 78.6155 204.513 75.9533 206.23C73.291 208.011 70.7555 209.855 68.3468 211.89C68.0299 212.144 67.7763 212.399 67.4594 212.653C67.2692 212.844 67.2058 213.098 67.4594 213.353C67.6495 213.543 68.1566 213.671 68.3468 213.48Z" fill="#606060"/>
<path d="M111.387 191.35C113.098 190.396 114.683 189.506 116.584 189.188C117.345 189.061 118.486 189.315 119.183 189.57C119.5 189.697 119.881 190.015 119.754 190.333C119.69 190.46 119.564 190.523 119.5 190.587C118.549 191.159 117.345 191.604 116.267 191.732C114.556 191.986 113.098 191.414 111.387 191.35Z" fill="#606060"/>
<path d="M108.978 191.922C109.358 189.951 109.675 188.107 110.689 186.39C111.133 185.69 112.021 184.991 112.718 184.546C113.035 184.355 113.542 184.291 113.669 184.609C113.732 184.737 113.732 184.864 113.669 184.991C113.478 186.072 113.098 187.407 112.464 188.298C111.513 189.824 110.182 190.587 108.978 191.922Z" fill="#606060"/>
<path d="M108.724 191.859C110.626 192.431 112.401 192.94 113.986 194.212C114.619 194.72 115.253 195.674 115.57 196.437C115.697 196.755 115.697 197.328 115.38 197.391C115.253 197.455 115.127 197.391 115 197.391C113.922 197.137 112.718 196.565 111.83 195.801C110.499 194.657 109.929 193.194 108.724 191.859Z" fill="#606060"/>
<path d="M102.576 193.767C103.02 191.668 103.337 189.633 104.414 187.789C104.858 187.026 105.872 186.263 106.633 185.818C106.95 185.627 107.52 185.563 107.71 185.945C107.774 186.072 107.774 186.199 107.71 186.326C107.52 187.535 107.076 188.934 106.379 189.887C105.365 191.477 103.844 192.304 102.576 193.767Z" fill="#606060"/>
<path d="M102.449 193.576C104.541 194.212 106.442 194.784 108.154 196.119C108.851 196.628 109.485 197.709 109.865 198.536C110.056 198.917 110.056 199.49 109.675 199.553C109.548 199.617 109.422 199.553 109.295 199.553C108.154 199.235 106.823 198.599 105.872 197.836C104.414 196.565 103.78 194.975 102.449 193.576Z" fill="#606060"/>
<path d="M95.0328 196.501C95.5399 193.767 95.9836 191.223 97.3781 188.87C97.9486 187.916 99.2164 186.899 100.167 186.326C100.611 186.072 101.308 186.008 101.498 186.454C101.562 186.581 101.562 186.772 101.498 186.962C101.245 188.488 100.674 190.269 99.8502 191.541C98.5191 193.639 96.6175 194.657 95.0328 196.501Z" fill="#606060"/>
<path d="M94.7793 196.692C97.4415 197.518 99.9136 198.218 102.069 199.935C102.956 200.634 103.78 201.97 104.224 202.987C104.414 203.432 104.414 204.196 103.97 204.323C103.78 204.386 103.653 204.323 103.463 204.259C102.005 203.878 100.294 203.051 99.0896 202.097C97.2514 200.507 96.4273 198.472 94.7793 196.692Z" fill="#606060"/>
<path d="M88.187 199.681C88.5039 196.946 88.6941 194.339 89.8984 191.859C90.4055 190.841 91.5465 189.76 92.4973 189.124C92.941 188.806 93.6383 188.679 93.8284 189.124C93.8918 189.252 93.8918 189.442 93.8918 189.633C93.765 191.159 93.3847 193.003 92.6241 194.339C91.4831 196.501 89.6449 197.709 88.187 199.681Z" fill="#606060"/>
<path d="M87.9968 199.871C90.7225 200.507 93.1946 200.952 95.5399 202.479C96.4907 203.051 97.4415 204.386 97.9486 205.34C98.2022 205.785 98.2656 206.485 97.7585 206.676C97.5683 206.739 97.4415 206.739 97.2514 206.676C95.7301 206.421 93.9552 205.785 92.7509 204.895C90.7859 203.432 89.7717 201.525 87.9968 199.871Z" fill="#606060"/>
<path d="M81.5947 203.305C81.7215 201.08 81.7215 198.981 82.6089 196.883C82.9892 196.056 83.8767 195.102 84.5739 194.53C84.8909 194.275 85.4613 194.148 85.6515 194.466C85.7149 194.593 85.7149 194.72 85.7149 194.848C85.7149 196.119 85.4613 197.582 84.8909 198.727C84.0668 200.571 82.6723 201.588 81.5947 203.305Z" fill="#606060"/>
<path d="M81.4046 203.432C83.6231 203.814 85.7149 204.068 87.6799 205.149C88.4405 205.595 89.328 206.612 89.7717 207.375C89.9618 207.757 90.0886 208.329 89.7083 208.456C89.5815 208.52 89.4547 208.52 89.328 208.52C88.1236 208.393 86.6023 207.947 85.5881 207.312C83.8133 206.23 82.9259 204.704 81.4046 203.432Z" fill="#606060"/>
<path d="M76.1434 206.739C76.08 204.831 76.0167 203.114 76.5871 201.334C76.8407 200.634 77.5379 199.744 78.045 199.235C78.2986 198.981 78.7423 198.854 78.9325 199.108C78.9958 199.172 78.9958 199.299 78.9958 199.426C79.0592 200.444 78.9325 201.715 78.5521 202.733C78.045 204.323 76.9041 205.277 76.1434 206.739Z" fill="#606060"/>
<path d="M76.0167 206.866C77.8549 207.057 79.6297 207.121 81.3412 207.884C82.0384 208.202 82.7991 208.965 83.2428 209.601C83.433 209.855 83.5597 210.364 83.2428 210.555C83.116 210.618 82.9892 210.618 82.9259 210.618C81.9117 210.555 80.6439 210.3 79.6931 209.855C78.2352 209.092 77.3478 207.82 76.0167 206.866Z" fill="#606060"/>
<path d="M71.7063 209.792C71.5161 208.265 71.326 206.866 71.6429 205.34C71.7697 204.768 72.2768 204.005 72.7205 203.496C72.9107 203.305 73.291 203.114 73.4812 203.305C73.5446 203.369 73.5445 203.496 73.6079 203.56C73.7347 204.386 73.7347 205.467 73.4812 206.294C73.1008 207.629 72.2768 208.52 71.7063 209.792Z" fill="#606060"/>
<path d="M71.6429 209.919C73.1642 209.919 74.6221 209.855 76.08 210.364C76.6505 210.555 77.3478 211.127 77.7915 211.636C77.9816 211.827 78.1084 212.208 77.8549 212.399C77.7915 212.462 77.6647 212.462 77.6013 212.462C76.7773 212.526 75.6997 212.399 74.9391 212.081C73.6079 211.509 72.7839 210.555 71.6429 209.919Z" fill="#606060"/>
<path d="M33.2253 87.7654C33.3521 89.4824 33.4789 91.1993 32.845 92.7891C32.2745 94.1245 31.197 95.3964 31.2603 96.859C31.2603 96.9861 31.2603 97.0497 31.3237 97.1769C31.3871 97.3041 31.5773 97.3041 31.7041 97.3041C35.5073 97.6221 39.3739 97.94 43.1771 97.6856C44.7618 97.6221 46.3465 97.4313 47.9312 97.3041C51.8612 96.9861 55.7912 97.0497 59.7212 97.4313C58.6436 93.8702 58.1365 90.1183 58.1365 86.43" fill="#FF9670"/>
<path d="M33.162 91.5809C36.9652 91.7081 40.9586 91.3265 44.6984 91.1357C49.1355 90.8814 53.7628 90.5634 57.9464 89.0372C58.0097 89.0372 58.0731 88.9736 58.1365 88.9736C58.0731 88.0834 58.0731 87.1931 58.0731 86.3028L33.2253 87.7654C33.2887 89.0372 33.4155 90.3726 33.162 91.5809Z" fill="#FC7F51"/>
<path d="M43.6209 202.866L43.8744 191.419C42.6067 191.356 41.4023 191.292 40.1346 191.229C39.057 191.229 38.0428 191.292 37.0286 191.165C37.8526 196.952 38.5499 202.421 38.5499 204.328C38.5499 206.745 37.4089 209.734 37.4089 209.734C43.9378 212.85 43.811 208.207 43.6842 206.3C43.6209 205.219 43.6209 204.074 43.6209 202.866Z" fill="#FF9670"/>
<path d="M38.1696 206.554C36.6483 209.288 35.951 212.786 36.3313 216.093C36.3947 216.474 36.4581 216.919 36.6483 217.237C36.8384 217.492 37.092 217.619 37.3455 217.746C39.5641 218.891 42.163 218.827 44.3815 217.555C44.5717 217.428 44.7618 217.301 44.8886 217.11C45.0154 216.856 45.0788 216.538 45.0788 216.283C45.2689 214.439 45.2689 212.532 45.0154 210.687" fill="#E59900"/>
<path d="M38.3597 205.664C39.6909 204.519 41.5291 204.265 42.8602 205.346C44.1913 206.49 44.6984 208.589 45.0788 210.497C45.3957 211.832 45.5859 213.485 44.8252 214.439C44.5083 214.757 44.128 214.948 43.7476 215.139C42.2897 215.711 40.7684 215.838 39.3105 215.584C38.1062 215.33 36.7117 214.63 36.4581 213.104C36.268 212.277 36.4581 211.387 36.7117 210.56C37.2188 208.589 37.5357 207.381 38.3597 205.664Z" fill="#FEB405"/>
<path d="M38.6767 212.086C38.9936 212.086 38.9936 211.578 38.6767 211.578C38.3597 211.578 38.3597 212.086 38.6767 212.086Z" fill="white"/>
<path d="M43.0504 211.959C43.3673 211.959 43.3673 211.451 43.0504 211.451C42.7968 211.451 42.7968 211.959 43.0504 211.959Z" fill="white"/>
<path d="M39.6909 212.023C40.5149 211.896 41.2756 211.896 42.0996 211.959C42.2264 211.959 42.3531 211.832 42.3531 211.705C42.3531 211.578 42.2264 211.451 42.0996 211.451C41.2756 211.387 40.5149 211.387 39.6909 211.514C39.5641 211.514 39.4373 211.641 39.4373 211.769C39.4373 211.896 39.5641 212.023 39.6909 212.023Z" fill="white"/>
<path d="M38.6767 209.734C38.9936 209.734 38.9936 209.225 38.6767 209.225C38.4231 209.225 38.4231 209.734 38.6767 209.734Z" fill="white"/>
<path d="M43.0504 209.606C43.3673 209.606 43.3673 209.098 43.0504 209.098C42.7968 209.098 42.7968 209.606 43.0504 209.606Z" fill="white"/>
<path d="M39.6909 209.67C40.5149 209.543 41.2756 209.543 42.0996 209.606C42.2264 209.606 42.3531 209.479 42.3531 209.352C42.3531 209.225 42.2264 209.098 42.0996 209.098C41.2756 209.034 40.5149 209.034 39.6909 209.161C39.5641 209.161 39.4373 209.288 39.4373 209.416C39.5007 209.543 39.5641 209.67 39.6909 209.67Z" fill="white"/>
<path d="M38.6767 207.317C38.9936 207.317 38.9936 206.808 38.6767 206.808C38.4231 206.808 38.4231 207.317 38.6767 207.317Z" fill="white"/>
<path d="M43.0504 207.19C43.3673 207.19 43.3673 206.681 43.0504 206.681C42.7968 206.681 42.7968 207.19 43.0504 207.19Z" fill="white"/>
<path d="M39.6909 207.254C40.5149 207.126 41.2756 207.126 42.0996 207.19C42.2264 207.19 42.3531 207.063 42.3531 206.936C42.3531 206.808 42.2264 206.681 42.0996 206.681C41.2756 206.618 40.5149 206.618 39.6909 206.745C39.5641 206.745 39.4373 206.872 39.4373 206.999C39.5007 207.126 39.5641 207.254 39.6909 207.254Z" fill="white"/>
<path d="M64.7922 202.929L63.2709 191.61C64.4752 191.419 65.743 191.165 66.9473 190.974C68.0249 190.847 69.0391 190.783 69.9899 190.593C69.7998 196.443 69.7364 201.975 69.9265 203.883C70.1801 206.3 71.7014 209.161 71.7014 209.161C65.5528 212.977 65.1725 208.335 65.0457 206.49C64.9823 205.282 64.9189 204.138 64.7922 202.929Z" fill="#FF9670"/>
<path d="M70.5604 205.982C72.3986 208.525 73.4762 211.896 73.4762 215.266C73.4762 215.711 73.4762 216.093 73.2861 216.474C73.1593 216.729 72.9057 216.919 72.6522 217.047C70.5604 218.446 67.9615 218.636 65.6162 217.683C65.426 217.619 65.2359 217.492 65.0457 217.301C64.8556 217.11 64.7922 216.792 64.7288 216.474C64.3485 214.63 64.1583 212.722 64.1583 210.878" fill="#E59900"/>
<path d="M70.3068 205.091C68.8489 204.074 67.0107 204.01 65.8064 205.282C64.6654 206.554 64.3484 208.716 64.1583 210.687C64.0315 212.023 63.9681 213.74 64.8555 214.567C65.1725 214.884 65.5528 215.012 65.9965 215.139C67.4544 215.52 69.0391 215.52 70.4336 215.075C71.638 214.694 72.9057 213.803 73.0325 212.277C73.0959 211.387 72.8423 210.56 72.5254 209.734C71.7648 207.889 71.321 206.745 70.3068 205.091Z" fill="#FEB405"/>
<path d="M70.7506 211.514C70.4336 211.578 70.4336 211.069 70.6872 211.005C70.9407 211.005 71.0041 211.514 70.7506 211.514Z" fill="white"/>
<path d="M66.3768 211.896C66.0599 211.959 66.0599 211.451 66.3135 211.387C66.567 211.387 66.6304 211.896 66.3768 211.896Z" fill="white"/>
<path d="M69.673 211.578C68.849 211.578 68.0883 211.641 67.3276 211.832C67.2009 211.832 67.0741 211.705 67.0741 211.578C67.0741 211.451 67.1375 211.323 67.2643 211.323C68.0249 211.133 68.8489 211.069 69.6096 211.069C69.7364 211.069 69.8631 211.133 69.8631 211.323C69.9265 211.451 69.7998 211.578 69.673 211.578Z" fill="white"/>
<path d="M70.4336 209.161C70.1801 209.225 70.1167 208.716 70.3702 208.653C70.6872 208.653 70.7505 209.161 70.4336 209.161Z" fill="white"/>
<path d="M66.0599 209.606C65.743 209.67 65.743 209.161 65.9965 209.098C66.3135 209.034 66.3769 209.543 66.0599 209.606Z" fill="white"/>
<path d="M69.4194 209.225C68.5954 209.225 67.8347 209.288 67.0741 209.479C66.9473 209.479 66.8206 209.352 66.8206 209.225C66.8206 209.098 66.8839 208.971 67.0107 208.971C67.7714 208.78 68.5954 208.716 69.356 208.716C69.4828 208.716 69.6096 208.78 69.6096 208.971C69.6096 209.098 69.5462 209.225 69.4194 209.225Z" fill="white"/>
<path d="M70.18 206.808C69.8631 206.872 69.8631 206.363 70.1167 206.3C70.4336 206.236 70.4336 206.745 70.18 206.808Z" fill="white"/>
<path d="M65.8063 207.19C65.4894 207.254 65.4894 206.745 65.743 206.681C65.9965 206.618 66.0599 207.126 65.8063 207.19Z" fill="white"/>
<path d="M69.1659 206.872C68.3419 206.872 67.5812 206.936 66.8206 207.126C66.6938 207.126 66.567 206.999 66.567 206.872C66.567 206.745 66.6304 206.618 66.7572 206.618C67.5178 206.427 68.3419 206.363 69.1025 206.363C69.2293 206.363 69.356 206.427 69.356 206.618C69.356 206.681 69.2927 206.872 69.1659 206.872Z" fill="white"/>
<path d="M31.197 77.4C29.9292 80.0708 28.0276 84.5858 27.0134 87.3203C26.6331 88.4013 26.1894 89.546 26.3795 90.6906C26.5063 91.5809 26.95 92.344 27.3937 93.1071C30.6265 98.7031 34.2395 104.108 38.2963 109.132C38.5499 109.45 38.8034 109.768 38.74 110.15C38.74 110.404 38.5499 110.658 38.4231 110.913C37.7258 111.93 37.092 112.884 36.3947 113.901C36.2679 114.092 36.1412 114.283 35.951 114.283C35.7608 114.283 35.5707 114.156 35.4439 113.965C32.2112 110.15 28.915 106.334 25.6823 102.519C23.2736 99.7206 20.8649 96.9225 19.09 93.6794C18.5829 92.7255 18.0758 91.7081 18.0124 90.627C17.949 89.8003 18.1392 88.9736 18.3294 88.1469C19.7873 81.9786 22.0692 76.0646 25.1752 70.5957" fill="#FF9670"/>
<path d="M26.3795 90.627C26.1894 89.4824 26.6331 88.3377 27.0134 87.2567C28.0276 84.5222 29.9292 80.0073 31.197 77.3364L31.1336 77.2728C30.88 77.5272 30.6265 77.7816 30.2462 78.0359C27.9008 79.4985 26.7599 82.7417 25.8091 85.2217C24.5413 88.6557 24.7949 91.4537 26.2528 94.824C27.267 97.1769 28.3445 99.5298 29.5489 101.819C32.0844 105.507 34.6199 109.132 36.9018 112.948C37.4089 112.248 37.8526 111.485 38.3597 110.785C38.5499 110.531 38.6767 110.277 38.6767 110.022C38.6767 109.641 38.4231 109.323 38.2329 109.005C34.1762 103.981 30.5631 98.5759 27.3304 92.9799C26.95 92.2804 26.5063 91.5173 26.3795 90.627Z" fill="#FC7F51"/>
<path d="M32.6544 93.6153C29.2315 97.0492 28.1539 102.073 27.2031 106.842C26.3157 111.166 25.4916 115.491 25.4916 119.879C25.4916 123.821 26.2523 127.7 26.9495 131.579C29.2949 145.061 30.6894 158.733 31.0697 172.405C31.3867 182.58 31.2599 193.39 36.3942 202.166C36.6478 202.547 36.9013 202.929 37.2817 203.12C37.5986 203.247 37.9789 203.247 38.2959 203.183C40.0073 202.992 41.7821 202.802 43.4936 202.674C43.7472 202.674 44.0007 202.611 44.1909 202.42C44.3176 202.293 44.3176 202.039 44.381 201.848C46.2193 175.712 43.4302 149.321 46.5362 123.249C50.9099 149.576 56.2344 175.775 62.5098 201.784C62.6365 202.293 63.0802 202.674 63.6507 202.674C65.9327 202.738 68.2146 202.484 70.4965 201.593C70.8135 201.466 71.0037 201.212 71.067 200.894C71.8911 195.361 71.1938 189.765 70.4332 184.233C67.454 160.768 65.2354 137.175 63.7775 113.519C63.3972 107.16 62.9535 100.483 59.594 95.0779C59.4672 94.8235 59.277 94.6327 59.0235 94.5056C58.7699 94.3784 58.453 94.5056 58.136 94.5692C54.3328 95.7138 50.2127 95.3958 46.2826 95.1415C41.7822 94.8235 37.2183 93.9332 32.6544 93.6153Z" fill="#666666"/>
<path d="M45.3323 139.147C44.952 142.072 44.4449 144.998 44.128 147.923C43.3039 155.745 43.0504 163.63 42.9236 171.515C42.7968 178.955 43.0504 186.65 42.0362 194.09C41.5925 197.46 40.5149 200.958 38.1696 203.247C38.2329 203.247 38.2329 203.247 38.2963 203.247C40.0078 203.057 41.7826 202.866 43.4941 202.739C43.7476 202.739 44.0012 202.675 44.1913 202.484C44.3181 202.357 44.3181 202.103 44.3815 201.912C45.9028 180.99 44.3815 160.005 45.3323 139.147Z" fill="#2D0E0B"/>
<path d="M29.8025 111.803C31.1336 106.588 32.3379 98.5123 38.4865 97.0497C41.4657 96.3502 44.7618 96.9226 47.741 96.7318C51.2273 96.4774 54.6502 96.0959 57.8196 94.6333C54.0797 95.6507 50.1497 95.3964 46.2831 95.142C41.7192 94.824 37.1554 93.9338 32.5915 93.5522C29.1686 96.9861 28.091 102.01 27.1402 106.779C26.2528 111.103 25.4287 115.428 25.4287 119.815C25.4287 123.758 26.1894 127.637 26.8866 131.516C26.95 131.961 27.0134 132.407 27.1402 132.852C27.3937 125.793 28.091 118.671 29.8025 111.803Z" fill="#2D0E0B"/>
<path d="M70.4336 184.233C68.4686 168.781 66.8206 153.201 65.4894 137.685C65.5528 140.355 65.5528 143.09 65.426 145.761C65.0457 153.201 64.602 160.577 65.1725 168.018C65.743 175.521 66.9473 182.962 67.4544 190.465C67.7714 194.662 68.0883 199.114 65.9331 202.611C67.4544 202.484 68.9757 202.166 70.497 201.594C70.814 201.467 71.0041 201.212 71.0675 200.894C71.8915 195.362 71.1309 189.766 70.4336 184.233Z" fill="#2D0E0B"/>
<g opacity="0.75">
<g opacity="0.75">
<path opacity="0.75" d="M28.5347 103.854C30.8167 101.755 32.2745 98.9575 32.7183 95.9051C32.7816 95.5871 32.2745 95.46 32.2745 95.7779C31.8942 98.7667 30.4363 101.501 28.2178 103.536C27.9642 103.663 28.2812 104.045 28.5347 103.854Z" fill="white"/>
</g>
<g opacity="0.75">
<path opacity="0.75" d="M57.6294 96.7318C58.0731 99.9113 59.9113 102.837 62.5736 104.744C62.8271 104.935 63.0807 104.49 62.8272 104.299C60.2917 102.519 58.5802 99.657 58.1365 96.6046C58.0731 96.2866 57.566 96.4138 57.6294 96.7318Z" fill="white"/>
</g>
<g opacity="0.75">
<path opacity="0.75" d="M32.845 95.3328C32.7816 95.7143 32.7816 96.0959 32.7183 96.541C32.7183 96.6682 32.845 96.7954 32.9718 96.7954C33.0986 96.7954 33.2254 96.6682 33.2254 96.541C33.2888 96.1595 33.2888 95.7779 33.3521 95.3328C33.3521 95.2056 33.2254 95.0784 33.0986 95.0784C32.9718 95.142 32.9084 95.2056 32.845 95.3328Z" fill="white"/>
</g>
<g opacity="0.75">
<path opacity="0.75" d="M34.7467 95.3964C34.4297 96.0323 34.303 96.7954 34.2396 97.4949C34.2396 97.6221 34.3663 97.7492 34.4931 97.7492C34.6199 97.7492 34.7467 97.6221 34.7467 97.4949C34.7467 96.859 34.9368 96.2231 35.1904 95.6507C35.2538 95.5235 35.2538 95.3964 35.127 95.3328C35.0002 95.2692 34.81 95.2692 34.7467 95.3964Z" fill="white"/>
</g>
<g opacity="0.75">
<path opacity="0.75" d="M36.4581 95.7779C36.3313 96.4774 36.2679 97.1133 36.1412 97.8128C36.1412 97.94 36.2046 98.0672 36.3313 98.1308C36.4581 98.1308 36.5849 98.0672 36.6483 97.94C36.775 97.2405 36.8384 96.6046 36.9652 95.9051C36.9652 95.7779 36.9018 95.6507 36.775 95.5871C36.6483 95.5871 36.4581 95.6507 36.4581 95.7779Z" fill="white"/>
</g>
<g opacity="0.75">
<path opacity="0.75" d="M37.8526 96.1595C37.7892 96.6046 37.7258 97.0497 37.7892 97.5585C37.7892 97.6857 37.916 97.8128 38.0428 97.8128C38.1695 97.8128 38.2963 97.6857 38.2963 97.5585C38.2963 97.3677 38.2963 97.1133 38.2963 96.9226C38.2963 96.7954 38.2963 96.7318 38.2963 96.6046C38.2963 96.541 38.2963 96.4774 38.2963 96.4774V96.4138C38.2963 96.3502 38.2963 96.3502 38.2963 96.2866C38.2963 96.1595 38.2329 96.0323 38.1061 95.9687C38.0428 95.9687 37.916 95.9687 37.8526 96.1595Z" fill="white"/>
</g>
<g opacity="0.75">
<path opacity="0.75" d="M39.1204 96.2231C39.1204 96.7318 39.1837 97.2405 39.1837 97.7492C39.1837 97.8764 39.3105 98.0036 39.4373 98.0036C39.5641 98.0036 39.6908 97.8764 39.6908 97.7492C39.6908 97.2405 39.6275 96.7318 39.6275 96.2231C39.6275 96.0959 39.5007 95.9687 39.3739 95.9687C39.2471 95.9687 39.1204 96.0323 39.1204 96.2231Z" fill="white"/>
</g>
<g opacity="0.75">
<path opacity="0.75" d="M40.8952 96.223C40.8318 96.7318 40.7684 97.2405 40.6416 97.6857C40.6416 97.8128 40.705 97.94 40.8318 98.0036C40.9586 98.0036 41.0854 97.94 41.1487 97.8128C41.2121 97.3041 41.2755 96.7954 41.4023 96.3502C41.4023 96.223 41.3389 96.0959 41.2121 96.0323C41.0854 95.9687 40.8952 96.0323 40.8952 96.223Z" fill="white"/>
</g>
<g opacity="0.75">
<path opacity="0.75" d="M42.3531 96.1595C42.2897 96.859 42.2897 97.6221 42.3531 98.3216C42.3531 98.4487 42.4799 98.5759 42.6066 98.5759C42.7334 98.5759 42.8602 98.4487 42.8602 98.3216C42.7968 97.6221 42.7968 96.859 42.8602 96.1595C42.8602 96.0323 42.7334 95.9051 42.6066 95.9051C42.4165 95.9051 42.3531 96.0323 42.3531 96.1595Z" fill="white"/>
</g>
<g opacity="0.75">
<path opacity="0.75" d="M44.0646 96.4774C44.0012 97.1769 44.0012 97.8764 44.0012 98.5759C44.0012 98.8939 44.5083 98.8939 44.5083 98.5759C44.5083 97.8764 44.5083 97.1769 44.5716 96.4774C44.5716 96.3502 44.4449 96.2231 44.3181 96.2231C44.1279 96.2231 44.0646 96.3502 44.0646 96.4774Z" fill="white"/>
</g>
<g opacity="0.75">
<path opacity="0.75" d="M45.4591 96.6682C45.4591 97.4313 45.5225 98.1308 45.5225 98.8939C45.5225 99.2118 46.0295 99.2118 46.0295 98.8939C46.0295 98.1308 45.9662 97.4313 45.9662 96.6682C45.9662 96.3502 45.4591 96.3502 45.4591 96.6682Z" fill="white"/>
</g>
<g opacity="0.75">
<path opacity="0.75" d="M47.4241 96.7318C47.4241 97.3041 47.4241 97.94 47.4875 98.5123C47.4875 98.6395 47.6142 98.7667 47.741 98.7667C47.8678 98.7667 47.9946 98.6395 47.9946 98.5123C47.9312 97.94 47.9312 97.3041 47.9312 96.7318C47.9312 96.6046 47.8044 96.4774 47.6776 96.4774C47.5508 96.4774 47.4241 96.6046 47.4241 96.7318Z" fill="white"/>
</g>
<g opacity="0.75">
<path opacity="0.75" d="M49.0087 96.859C49.0087 97.4949 49.0087 98.0672 49.0721 98.7031C49.0721 98.8303 49.1989 98.9575 49.3257 98.9575C49.4524 98.9575 49.5792 98.8303 49.5792 98.7031C49.5158 98.0672 49.5158 97.4949 49.5158 96.859C49.5158 96.7318 49.389 96.6046 49.2623 96.6046C49.1355 96.6046 49.0721 96.7318 49.0087 96.859Z" fill="white"/>
</g>
<g opacity="0.75">
<path opacity="0.75" d="M50.4033 96.541C50.4033 97.1769 50.4033 97.8128 50.4033 98.4487C50.4033 98.7667 50.9104 98.7667 50.9104 98.4487C50.9104 97.8128 50.9104 97.1769 50.9104 96.541C50.9104 96.223 50.4033 96.223 50.4033 96.541Z" fill="white"/>
</g>
<g opacity="0.75">
<path opacity="0.75" d="M51.8612 96.6682C51.8612 97.3677 51.988 98.0672 52.0514 98.7667C52.0514 98.8939 52.2415 98.9575 52.3683 98.9575C52.4951 98.8939 52.5584 98.7667 52.5584 98.6395C52.4317 98.0036 52.3683 97.3041 52.3683 96.6682C52.3683 96.541 52.2415 96.4138 52.1147 96.4138C51.9246 96.4138 51.7978 96.541 51.8612 96.6682Z" fill="white"/>
</g>
<g opacity="0.75">
<path opacity="0.75" d="M53.2557 97.1133C53.3825 97.6857 53.5726 98.258 53.7628 98.7667C53.8262 98.8939 53.9529 98.9575 54.0797 98.9575C54.2065 98.9575 54.2699 98.7667 54.2699 98.6395C54.0163 98.1308 53.8895 97.5585 53.7628 96.9862C53.7628 96.859 53.5726 96.7954 53.4458 96.7954C53.3191 96.859 53.2557 96.9862 53.2557 97.1133Z" fill="white"/>
</g>
<g opacity="0.75">
<path opacity="0.75" d="M54.8404 96.541C55.0305 97.2405 55.2207 98.0036 55.2841 98.7667C55.2841 98.8939 55.4742 98.9575 55.601 98.9575C55.7278 98.8939 55.7912 98.7667 55.7912 98.6395C55.6644 97.8764 55.5376 97.1769 55.3475 96.4138C55.2841 96.1595 54.777 96.2866 54.8404 96.541Z" fill="white"/>
</g>
<g opacity="0.75">
<path opacity="0.75" d="M56.6786 96.4138C56.6786 97.1769 56.8688 97.8764 57.1223 98.5759C57.1857 98.7031 57.3758 98.7031 57.4392 98.6395C57.566 98.5759 57.566 98.4488 57.5026 98.3216C57.2491 97.7492 57.1223 97.0497 57.1223 96.4138C57.1857 96.0959 56.6786 96.0959 56.6786 96.4138Z" fill="white"/>
</g>
<g opacity="0.75">
<path opacity="0.75" d="M58.5802 95.9051C58.7704 96.4138 58.9605 96.859 59.1507 97.3677C59.2141 97.4949 59.3408 97.5585 59.4676 97.5585C59.5944 97.4949 59.6578 97.3677 59.6578 97.2405C59.4676 96.7318 59.2775 96.2866 59.0873 95.7779C59.0239 95.6507 58.8971 95.5871 58.7704 95.5871C58.6436 95.6507 58.5168 95.7779 58.5802 95.9051Z" fill="white"/>
</g>
<g opacity="0.75">
<path opacity="0.75" d="M47.1071 100.102C47.4874 103.981 47.4874 107.924 47.1071 111.867C47.1071 111.93 47.1705 112.057 47.2339 112.057C47.9312 112.375 48.7552 112.184 49.2623 111.676C49.8961 111.103 50.0863 110.213 50.1497 109.386C50.2765 108.369 50.2131 107.288 50.1497 106.27C50.0863 105.253 50.0229 104.172 49.8961 103.155C49.7694 101.946 49.6426 100.802 49.4524 99.657C49.3891 99.339 48.9453 99.4662 49.0087 99.7842C49.3257 102.137 49.5792 104.49 49.706 106.843C49.7694 107.924 49.8328 109.068 49.5158 110.15C49.2623 111.04 48.4382 112.121 47.4241 111.676C47.4874 111.739 47.4874 111.803 47.5508 111.867C47.9312 107.924 47.9312 104.045 47.5508 100.102C47.6142 99.7842 47.1071 99.7842 47.1071 100.102Z" fill="white"/>
</g>
<g opacity="0.75">
<path opacity="0.75" d="M47.2339 111.04C47.1705 114.219 46.917 117.463 46.6 120.642C46.4733 121.532 46.4099 122.486 46.2831 123.377C46.2831 123.631 46.7268 123.631 46.7902 123.377C47.2339 120.197 47.4875 117.017 47.6776 113.774C47.741 112.884 47.741 111.93 47.8044 111.04C47.741 110.849 47.2339 110.849 47.2339 111.04Z" fill="white"/>
</g>
<g opacity="0.75">
<path opacity="0.75" d="M28.091 103.6C27.6473 106.906 27.1402 110.213 26.6965 113.52C26.2527 116.763 26.0626 120.006 26.3795 123.313C26.6965 126.556 27.2669 129.799 27.7107 133.042C28.2178 136.413 28.6615 139.783 29.1052 143.153C29.9926 149.767 30.7532 156.444 31.3871 163.121C32.021 169.798 32.5281 176.475 32.9084 183.152C33.0986 186.396 33.0986 189.639 33.5423 192.818C33.7324 194.344 34.1128 195.807 34.6199 197.27C35.1269 198.732 35.8242 200.068 36.3947 201.53C36.6482 202.23 36.9018 202.929 37.1553 203.629C37.2187 203.947 37.7258 203.82 37.599 203.502C36.775 200.576 35.1269 197.906 34.4297 194.98C33.669 191.864 33.7324 188.621 33.5423 185.442C33.2253 178.765 32.7182 172.151 32.0844 165.538C31.4505 158.924 30.7532 152.374 29.9292 145.761C29.1052 139.211 28.1544 132.724 27.2036 126.238C26.6965 122.931 26.5063 119.625 26.8232 116.254C27.1402 112.884 27.7107 109.577 28.1544 106.207C28.2811 105.38 28.4079 104.554 28.4713 103.727C28.5981 103.409 28.1544 103.282 28.091 103.6Z" fill="white"/>
</g>
<g opacity="0.75">
<path opacity="0.75" d="M70.4336 200.449C69.0391 187.985 67.6446 175.458 66.1867 162.994C65.4894 156.826 64.6654 150.657 64.2217 144.425C63.778 138.193 63.7146 131.961 63.5244 125.729C63.3342 118.671 63.0807 111.549 62.8905 104.49C62.8905 104.172 62.4468 104.172 62.4468 104.49C62.637 110.785 62.8272 117.145 63.0173 123.44C63.2075 129.672 63.2709 135.904 63.6512 142.136C64.0315 148.368 64.8555 154.536 65.4894 160.705C66.1867 166.937 66.8839 173.105 67.5812 179.337C68.4052 186.396 69.1659 193.391 69.9899 200.449C69.9899 200.767 70.4336 200.767 70.4336 200.449Z" fill="white"/>
</g>
</g>
<path d="M58.707 47.6393C58.3267 46.6218 57.6928 45.6043 57.7562 44.5233C57.7562 43.8874 58.0731 43.2515 58.3267 42.6155C59.0873 40.5806 59.3409 38.1642 58.1365 36.32C57.5026 35.3661 56.6152 34.7302 56.1081 33.7128C55.5377 32.6317 55.5377 31.3599 55.2207 30.1516C54.777 28.3711 53.636 26.7813 52.0514 25.7638C51.6077 25.4459 51.1005 25.2551 50.5934 25.0643C51.2273 23.6653 51.2273 22.0119 50.5934 20.6129C49.7694 18.896 48.1214 17.6877 46.2831 17.2426C44.4449 16.7975 42.4799 16.9882 40.705 17.6241C39.057 18.1965 37.5991 19.2139 36.5215 20.5493C35.5073 21.9484 34.9368 23.7289 35.3171 25.4459C35.5073 26.209 35.8242 26.9085 36.3313 27.4808C34.7466 28.8162 33.4789 30.406 33.2254 32.4409C33.0352 33.7128 33.2887 35.0482 32.9718 36.2564C32.4013 38.5457 30.1194 39.9447 28.8516 41.9796C27.0134 44.9048 27.7107 48.9747 30.056 51.4547C32.4013 53.9984 36.0778 54.9523 39.4373 54.5707C40.705 54.4435 41.9094 54.1256 43.1771 53.9984C47.1072 53.6804 51.0372 55.5882 54.9038 54.7615C55.7912 54.5707 56.6786 54.2528 57.3125 53.6804C57.9464 53.1081 58.3901 52.345 58.6436 51.5819C59.1507 50.3101 59.1507 48.9111 58.707 47.6393Z" fill="#6E2501"/>
<path d="M56.4884 57.178C51.9246 56.2877 49.8962 53.744 49.8962 53.744C48.5016 50.1829 49.2623 47.0669 49.6426 45.7951C46.8536 45.6679 44.0012 45.6679 41.2121 45.4772C40.8952 45.4772 40.6416 45.4136 40.3881 45.35C40.705 46.0495 41.9094 49.6106 40.3247 53.744C40.3247 53.744 38.2963 56.2877 33.7324 57.178C29.1686 58.0682 27.1402 60.0396 27.1402 62.456C27.1402 64.3638 39.8176 64.3002 45.0787 64.2366C50.3399 64.3638 63.0173 64.3638 63.0173 62.456C63.0807 60.0396 61.1157 58.0682 56.4884 57.178Z" fill="#FF9670"/>
<path d="M41.1488 47.8936C41.7826 48.9111 44.4449 49.865 45.5859 49.9921C47.0438 50.1829 48.5017 49.865 49.0722 48.7839C48.9454 46.8126 49.3257 46.6854 49.6426 45.8587C46.8536 45.7315 44.0012 45.7315 41.2122 45.5408C40.8952 45.5408 40.6417 45.4772 40.3881 45.4136C40.5149 45.7315 40.7684 46.4946 40.9586 47.5121C41.1488 47.7029 41.022 47.6393 41.1488 47.8936Z" fill="#FC7F51"/>
<path d="M37.916 39.0544C37.6624 38.6729 37.3455 38.3549 36.9652 38.1006C36.5849 37.8462 36.0778 37.719 35.6341 37.9098C35.1903 38.037 34.8734 38.4185 34.7466 38.8001C34.5565 39.1816 34.5565 39.6267 34.6199 40.0719C34.7466 40.835 35.127 41.5981 35.8242 41.9796C36.5215 42.3612 37.4723 42.1704 37.8526 41.4709C38.1062 41.0258 38.1062 40.4534 37.9794 39.9447" fill="#FF9670"/>
<path d="M37.2187 39.3724C37.1554 39.2452 37.0286 39.118 36.9018 39.0544C36.775 38.9908 36.5849 38.9273 36.4581 38.9908C36.3313 39.0544 36.2045 39.1816 36.1412 39.3088C36.0778 39.436 36.0778 39.6268 36.0778 39.7539C36.1411 40.0083 36.2679 40.3263 36.5215 40.3899C36.775 40.517 37.092 40.4535 37.2187 40.1991C37.2821 40.0719 37.2821 39.8175 37.2821 39.6904" fill="#FC7F51"/>
<path d="M51.6076 38.8001C51.8611 38.4185 52.1781 38.1006 52.5584 37.8462C52.9387 37.5918 53.4458 37.4646 53.8896 37.6554C54.3333 37.7826 54.6502 38.1642 54.777 38.5457C54.9671 38.9273 54.9671 39.3724 54.9038 39.8175C54.777 40.5806 54.3966 41.3437 53.6994 41.7253C53.0021 42.1068 52.0513 41.916 51.671 41.2165C51.4174 40.7714 51.4174 40.1991 51.5442 39.6903" fill="#FF9670"/>
<path d="M52.3049 39.118C52.3683 38.9908 52.495 38.8637 52.6218 38.8001C52.7486 38.7365 52.9387 38.6729 53.0655 38.7365C53.1923 38.8001 53.3191 38.9273 53.3824 39.0544C53.4458 39.1816 53.4458 39.3724 53.4458 39.4996C53.3824 39.7539 53.2557 40.0719 53.0021 40.1355C52.7486 40.2627 52.4316 40.1991 52.3049 39.9447C52.2415 39.8175 52.2415 39.5632 52.2415 39.436" fill="#FC7F51"/>
<path d="M37.2187 31.9322C36.4581 35.6205 36.7116 39.5632 37.9794 43.1243C38.3597 44.2053 38.8034 45.2864 39.564 46.1767C40.3247 47.1305 41.3389 47.83 42.3531 48.466C42.987 48.8475 43.6842 49.1655 44.4449 49.3562C45.9028 49.6742 47.424 49.229 48.6284 48.3388C49.8328 47.4485 50.4032 46.8126 51.2273 45.2228C51.7978 44.1417 52.0513 42.9335 52.3049 41.7253C52.6218 40.1355 52.812 38.1006 52.7486 36.4472C52.7486 35.4933 52.5584 34.5394 52.3683 33.5856C51.9879 31.6142 51.4808 29.4521 49.8961 28.2439C48.1847 26.9085 45.776 27.0993 43.6842 27.6716" fill="#FF9670"/>
<path d="M37.8526 40.9622C37.7892 41.7889 38.5499 42.4884 39.6274 42.6155C40.705 42.7427 41.6558 42.1704 41.7192 41.3437C41.7826 40.517 41.0219 39.8175 39.9444 39.6903C38.8668 39.6268 37.916 40.1991 37.8526 40.9622Z" fill="#FC7F51"/>
<path d="M51.5442 41.0258C51.7344 41.7889 51.0371 42.6155 50.0229 42.9335C48.9453 43.1879 47.9945 42.8063 47.8044 41.9796C47.6142 41.2165 48.3115 40.3898 49.3257 40.0719C50.3399 39.8811 51.3541 40.2627 51.5442 41.0258Z" fill="#FC7F51"/>
<path d="M41.2121 35.1118C40.0077 35.1118 38.5498 35.2389 37.9794 35.9384C37.7258 36.32 37.3455 36.2564 37.599 35.8749C38.4231 34.7302 39.564 34.5394 41.2755 34.3487C41.4657 34.3487 41.6558 34.5394 41.5924 34.7302C41.5924 34.9846 41.4023 35.1754 41.2121 35.1118Z" fill="#6E2501"/>
<path d="M39.8176 37.8462C39.9443 38.3549 40.3247 38.7365 40.7684 38.6093C41.2121 38.5457 41.4656 38.037 41.3389 37.5282C41.2121 37.0195 40.8318 36.6379 40.3881 36.7651C40.0077 36.8287 39.6908 37.3374 39.8176 37.8462Z" fill="#2D0E0B"/>
<path d="M47.9945 35.1118C49.1989 35.1118 50.6568 35.2389 51.2273 35.9384C51.5442 36.32 51.8612 36.2564 51.6076 35.8749C50.7836 34.7302 49.6426 34.5394 47.9312 34.3487C47.741 34.3487 47.5509 34.5394 47.6142 34.7302C47.6142 34.9846 47.8044 35.1754 47.9945 35.1118Z" fill="#6E2501"/>
<path d="M49.3891 37.8462C49.2623 38.3549 48.882 38.7365 48.4383 38.6093C47.9946 38.5457 47.741 38.037 47.8678 37.5282C47.9946 37.0195 48.3749 36.6379 48.8186 36.7651C49.1989 36.8287 49.4525 37.3374 49.3891 37.8462Z" fill="#2D0E0B"/>
<path d="M45.2689 40.7714C45.5858 40.7078 45.8394 40.5806 46.0929 40.3898C45.2055 39.6267 44.8252 38.7365 44.9519 37.5918C44.9519 37.4646 45.0153 37.2103 45.2055 37.2103C45.3323 37.2103 45.2689 37.5918 45.2689 37.7826C45.2689 39.1816 45.8393 39.5631 46.7902 40.2626C46.9169 40.3262 46.9169 40.5806 46.7902 40.6442C46.4098 40.9622 45.9661 41.2165 45.459 41.3437C45.0787 41.3437 44.8885 40.835 45.2689 40.7714Z" fill="#F46E45"/>
<path d="M47.2339 43.6966C47.2339 43.6966 45.2689 43.6966 42.9869 44.0781C42.9869 44.0781 45.7126 46.0495 47.2339 43.6966Z" fill="#E53E3E"/>
<path d="M44.8252 24.5556C42.0362 24.1741 39.2471 25.7638 37.5991 28.0531C35.951 30.3424 35.3805 33.2676 35.4439 36.0656C35.4439 36.1292 35.4439 36.1928 35.5073 36.2564C35.5707 36.3836 35.7608 36.32 35.8876 36.2564C37.2821 35.7477 38.6133 35.0482 40.0078 34.6666C41.2121 34.3487 42.4799 34.2215 43.7476 34.3487C44.0012 34.3487 44.2547 34.4123 44.3815 34.2215C44.5083 34.0943 44.5083 33.9671 44.5717 33.7764C44.7618 32.5045 44.952 31.2327 45.1421 29.9609C45.9662 31.2327 46.3465 32.6953 46.2831 34.2215C46.2831 34.4123 46.2831 34.5394 46.4099 34.6666C46.4733 34.7302 46.6 34.7302 46.7268 34.7302C47.2339 34.7302 47.6776 34.7938 48.1847 34.7938C48.4383 34.7938 48.6918 34.7938 48.8186 34.6666C48.9454 34.5394 49.0088 34.2851 49.0088 34.0943C49.0088 33.4584 49.0721 32.7589 49.0721 32.123C49.8328 33.0133 50.4033 34.0943 50.7836 35.2389C51.7344 35.6205 52.7486 35.9385 53.6994 36.32C53.7628 36.32 53.8896 36.3836 53.953 36.3836C54.2065 36.3836 54.3967 36.0656 54.4601 35.8113C54.9038 33.9035 54.3967 31.9322 53.636 30.1516C52.3683 27.3536 49.9596 24.9372 46.9804 24.3012" fill="#6E2501"/>
<path d="M43.6842 24.5556C41.5925 26.3362 40.0712 28.6891 39.3105 31.2963C39.2471 31.5507 39.6909 31.6778 39.7542 31.4235C40.5149 28.8798 41.9728 26.5905 44.0012 24.8736C44.2547 24.7464 43.9378 24.3648 43.6842 24.5556Z" fill="#561C02"/>
<path d="M44.3815 25.0643C43.6208 26.4633 43.0504 27.9259 42.67 29.4521C42.6066 29.7701 43.0504 29.8337 43.1137 29.5793C43.4307 28.0531 44.0012 26.6541 44.7618 25.2551C44.952 25.0643 44.5717 24.81 44.3815 25.0643Z" fill="#561C02"/>
<path d="M45.9662 25.4459C47.1071 26.5905 47.9312 27.9895 48.3115 29.5793C48.3749 29.8337 48.8186 29.7701 48.7552 29.4521C48.3749 27.7988 47.4875 26.2726 46.2831 25.1279C46.0929 24.8736 45.776 25.1915 45.9662 25.4459Z" fill="#561C02"/>
<path d="M47.6776 25.5095C50.2765 26.7813 52.0513 29.4521 52.2415 32.3137C52.2415 32.6317 52.6852 32.6317 52.6852 32.3137C52.495 29.2614 50.6568 26.4633 47.9312 25.1279C47.6142 25.0007 47.4241 25.3823 47.6776 25.5095Z" fill="#561C02"/>
<path d="M39.057 25.3823C38.8034 24.4284 38.6767 23.411 38.9936 22.4571C39.3105 21.694 40.0078 21.0581 40.8318 21.1217C41.2755 21.1217 41.6559 21.376 42.0996 21.3124C42.4165 21.2489 42.6701 21.0581 42.8602 20.8037C43.3039 20.2314 43.4307 19.5319 44.0012 19.0232C44.6984 18.5144 45.5859 18.3237 46.4099 18.6416C46.6634 18.7688 46.7902 18.3237 46.5367 18.1965C45.776 17.8785 44.952 18.0057 44.2547 18.3237C43.8744 18.5144 43.5575 18.7688 43.3039 19.0867C43.0504 19.4047 42.9236 19.7227 42.7334 20.1042C42.5433 20.4222 42.3531 20.8673 41.9094 20.8673C41.4657 20.8673 41.022 20.6129 40.5149 20.6765C39.6909 20.7401 38.9936 21.376 38.6133 22.0755C38.1062 23.1566 38.2963 24.3648 38.5499 25.5095C38.6767 25.8274 39.1204 25.7003 39.057 25.3823Z" fill="#561C02"/>
<path d="M46.093 21.2489C46.6634 20.9945 47.2973 21.0581 47.8044 21.376C48.3115 21.694 48.6918 22.1391 48.882 22.7115C49.0088 22.9658 49.4525 22.8386 49.3257 22.5843C49.0721 21.9484 48.6284 21.3125 47.9946 20.9309C47.3607 20.5494 46.5367 20.4858 45.8394 20.8037C45.5858 20.9945 45.8394 21.376 46.093 21.2489Z" fill="#561C02"/>
<path d="M52.8754 33.3948C54.5868 34.921 55.4109 37.2739 54.9672 39.4996C54.7136 40.835 53.8896 42.0432 53.8896 43.4422C53.8896 44.0782 54.0797 44.6505 54.3967 45.1592C54.7136 45.6679 55.1573 46.1131 55.4743 46.6218C56.2349 47.83 56.5518 49.3562 56.2983 50.7552C56.2349 51.0732 56.6786 51.1368 56.742 50.8824C56.9322 49.6106 56.8054 48.3388 56.2983 47.1941C56.0447 46.6218 55.6644 46.0495 55.2841 45.5408C54.8404 45.032 54.4601 44.4597 54.3967 43.7602C54.2699 42.2976 55.1573 41.0258 55.4743 39.6268C55.7278 38.4821 55.6644 37.3375 55.3475 36.2564C54.9672 34.9846 54.2699 33.9035 53.3191 33.0133C52.9388 32.8861 52.6218 33.204 52.8754 33.3948Z" fill="#561C02"/>
<path d="M36.2045 32.4409C35.3805 33.204 34.7466 34.1579 34.3663 35.1754C33.9226 36.32 33.8592 37.5282 33.7958 38.8001C33.7958 39.436 33.7324 40.0719 33.6057 40.7078C33.4789 41.3437 33.2253 41.916 32.9084 42.4248C32.3379 43.5058 31.7674 44.5233 31.5773 45.7315C31.3237 47.0669 31.4505 48.5295 31.9576 49.8014C32.0844 50.0557 32.5281 49.9286 32.4013 49.6742C31.9576 48.5295 31.8308 47.3213 31.9576 46.1131C32.1478 44.9048 32.6549 43.8874 33.2253 42.8063C33.4789 42.2976 33.7324 41.7889 33.9226 41.2801C34.1128 40.7078 34.1762 40.0719 34.2395 39.4996C34.3029 38.2913 34.3029 37.0831 34.6199 35.8749C34.9368 34.6666 35.6341 33.5856 36.5215 32.7589C36.775 32.5681 36.3947 32.2502 36.2045 32.4409Z" fill="#561C02"/>
<path d="M36.9018 49.1655C35.951 47.83 36.0778 46.1767 36.5849 44.6505C36.7117 44.3961 36.268 44.2689 36.1412 44.5233C35.5707 46.1131 35.4439 47.9572 36.4581 49.3562C36.6483 49.6106 37.0286 49.4198 36.9018 49.1655Z" fill="#561C02"/>
<path d="M27.9008 60.1668C27.9008 60.1668 43.3039 64.6181 58.7704 57.8139C58.7704 57.8139 61.6228 57.9411 63.0807 60.2303C64.5386 62.5196 70.1801 72.9486 70.1801 72.9486L61.0523 78.799C61.0523 78.799 60.355 85.2218 59.7212 88.9736C59.7212 88.9736 39.6908 91.5809 32.4013 88.9736C32.4013 88.9736 31.0068 80.3888 30.88 78.6082L22.0692 75.5559C21.9424 75.4923 25.6823 62.456 27.9008 60.1668Z" fill="#EBEBEB"/>
<path d="M64.6654 62.9648C65.3627 67.289 63.0173 70.4685 61.2425 74.5384C59.2141 79.117 58.5168 83.0596 53.5093 85.1582C49.0088 87.0659 43.2405 88.1469 38.3597 88.0833C35.3171 88.0833 33.2254 87.0659 31.7675 85.2217C32.0844 87.1931 32.3379 88.8464 32.3379 88.8464C39.6909 91.4537 59.6578 88.8464 59.6578 88.8464C60.2917 85.0946 60.9889 78.6718 60.9889 78.6718L70.1167 72.8214C70.1801 72.885 66.8839 66.8438 64.6654 62.9648Z" fill="#DBDBDB"/>
<path d="M28.6615 64.8089C30.9434 62.7104 33.986 62.1381 36.9652 62.0109C39.4373 61.8837 41.846 61.693 44.1913 61.4386C34.8734 62.2017 27.9008 60.2303 27.9008 60.2303C26.1894 61.9473 23.5905 70.087 22.5129 73.7117C24.2878 70.5957 26.126 67.1618 28.6615 64.8089Z" fill="#DBDBDB"/>
<path d="M56.4885 58.577C56.4885 57.5595 55.6644 56.7328 54.7136 56.2241C53.7628 55.7154 53.1923 55.461 52.3049 54.9523C51.3541 54.4435 50.0863 53.0445 50.1497 52.0907C50.2131 51.6455 50.3399 50.946 50.53 50.5645C50.9104 49.8014 51.0372 49.2926 51.4175 48.5295C51.6076 48.148 52.6218 47.1305 52.6852 46.749C52.812 45.8587 52.2415 45.6679 51.8612 44.8412C51.4175 43.951 50.4667 43.315 49.9596 42.3612C49.8962 42.234 49.8328 42.0432 49.8328 41.8524C49.9596 41.4709 50.53 41.5981 50.9104 41.7889C52.1781 42.4884 53.4459 43.2515 54.5868 44.1417C55.8546 45.0956 57.0589 46.2402 57.8196 47.6393C58.3267 48.5931 58.6436 49.6742 59.0239 50.6916C59.7846 52.5358 60.1649 54.6343 61.1791 56.3513C63.0173 59.4673 64.9823 64.6817 66.3769 67.9249C67.1375 69.7691 67.7714 70.7229 68.2151 72.6943C68.532 74.0933 69.2293 76.4461 69.3561 77.9087C69.4828 80.198 69.6096 80.7704 69.1025 82.6781C68.7856 83.9499 68.1517 84.713 66.7572 84.8402C65.6796 84.9038 63.9681 83.2504 63.3343 82.4237C60.7354 79.117 59.848 76.5733 58.8972 72.5671C57.8196 68.6244 56.8688 62.7104 56.4885 58.577Z" fill="#FF9670"/>
<path d="M51.2273 42.8699C52.1147 44.5233 54.2699 45.0956 55.7278 46.1131C56.6152 46.6854 57.3759 47.3849 58.0732 48.0844C58.0098 47.9572 57.9464 47.7664 57.883 47.6393C57.1223 46.2402 55.918 45.1592 54.6502 44.1417C53.5093 43.2515 52.3049 42.4884 50.9738 41.7889C50.7202 41.6617 50.4033 41.5981 50.1497 41.6617C50.5301 41.916 50.9104 42.2976 51.2273 42.8699Z" fill="#FC7F51"/>
<path d="M65.6796 80.6432C62.7004 79.0534 61.496 75.683 60.4818 72.6943C59.2141 69.0695 58.3901 65.1905 56.8054 61.6929C57.3125 65.3177 58.0731 69.5783 58.8338 72.6307C59.848 76.6369 60.672 79.1806 63.2709 82.4873C63.9047 83.2504 65.6796 84.9674 66.6938 84.9038C68.0883 84.7766 68.7222 84.0135 69.0391 82.7417C69.2293 81.9786 69.3561 81.4699 69.4194 80.9611C68.3419 81.3427 67.0107 81.3427 65.6796 80.6432Z" fill="#FC7F51"/>
<path d="M81.0826 13.988C81.8917 11.703 80.7278 9.67946 78.2504 8.88397C76.2015 8.20332 74.2732 8.54248 72.5312 9.65574C71.9709 10.0323 71.1585 9.88045 70.7839 9.31923L68.7884 6.48033C68.4138 5.91911 68.4889 5.1492 69.0656 4.71122C72.2928 2.2184 76.3826 1.40503 81.076 2.99181C86.7774 4.98033 89.6518 9.43726 87.7867 14.9285C85.4041 21.861 79.496 21.1338 77.2912 24.9539C76.9594 25.4575 76.3544 25.7563 75.7585 25.5308L72.3957 24.3664C71.6774 24.1081 71.3074 23.2848 71.6273 22.5805C74.1778 17.4704 79.8173 17.7307 81.0826 13.988ZM67.7102 31.0769C68.5357 28.7305 70.4403 27.99 72.5952 28.7649C74.7664 29.4784 75.8126 31.207 75.0318 33.6312C74.2062 35.9776 72.2074 36.8245 70.0974 36.1275C67.9426 35.3526 66.8846 33.4232 67.7102 31.0769Z" fill="#2D0E0B"/>
<path d="M81.8786 14.2012C82.6877 11.9163 81.5237 9.89273 79.0463 9.09724C76.9975 8.4166 75.0692 8.75575 73.3272 9.86901C72.7669 10.2456 71.9545 10.0937 71.5799 9.5325L69.5844 6.6936C69.2098 6.13238 69.2848 5.36247 69.8615 4.92449C73.0888 2.43167 77.1785 1.6183 81.872 3.20508C87.5733 5.1936 90.4477 9.65053 88.5826 15.1417C86.2001 22.0743 80.292 21.3471 78.0872 25.1672C77.7554 25.6708 77.1503 25.9695 76.5545 25.7441L73.1916 24.5796C72.4733 24.3214 72.1033 23.498 72.4233 22.7937C74.9738 17.6837 80.6132 17.9439 81.8786 14.2012ZM68.4897 31.3516C69.3152 29.0052 71.2198 28.2647 73.3747 29.0396C75.5459 29.7531 76.5921 31.4817 75.8113 33.9059C74.9857 36.2523 72.9869 37.0992 70.8769 36.4022C68.7385 35.5658 67.6641 33.6979 68.4897 31.3516Z" fill="#666666"/>
</svg>
